<svg width="100" height="100" viewBox="0 0 100 100" fill="none" xmlns="http://www.w3.org/2000/svg">
<path d="M54.1098 46.2257C54.9832 45.6878 55.8843 45.1626 56.7841 44.6353C57.6909 44.119 58.5956 43.5999 59.4986 43.1113C59.9477 42.8631 60.3963 42.6215 60.8423 42.3871C61.2866 42.1527 61.7258 41.9177 62.1621 41.697C63.9024 40.8002 65.554 40.0104 66.9892 39.3684C68.4243 38.7243 69.6428 38.2285 70.5074 37.8999C70.9369 37.7324 71.2843 37.6163 71.5166 37.5307C71.7522 37.4499 71.8781 37.4078 71.8781 37.4078C71.8781 37.4078 71.7772 37.4946 71.5909 37.6587C71.4006 37.8173 71.1261 38.0591 70.7663 38.3482C70.0495 38.9315 69.011 39.7401 67.7361 40.6612C66.4621 41.5828 64.952 42.618 63.3056 43.6759C62.8962 43.9446 62.4738 44.2075 62.047 44.4748C61.6213 44.7443 61.1886 45.0118 60.7485 45.2764C59.8738 45.8156 58.9721 46.3384 58.0721 46.8653C57.1653 47.3812 56.2608 47.8992 55.3566 48.3873C55.2578 48.4422 55.1596 48.4918 55.0607 48.5454C59.9047 49.3958 73.0258 51.1877 79.9748 47.1755C95.7451 38.0703 87.1064 36.5927 83.6526 30.6099C80.1982 24.6273 83.2368 16.4067 67.4669 25.5119C60.5194 29.524 55.5101 41.7825 53.8239 46.4033C53.9195 46.3439 54.012 46.284 54.1098 46.2257Z" fill="#FF57A3"/>
<path d="M55.3566 51.6123C56.2608 52.1004 57.1653 52.6188 58.0721 53.1343C58.9721 53.6614 59.8738 54.1847 60.7492 54.7232C61.1886 54.9878 61.6217 55.2555 62.0475 55.5248C62.4738 55.7928 62.8962 56.0544 63.3054 56.323C64.9524 57.3821 66.4623 58.4164 67.7361 59.3386C69.0108 60.2596 70.0495 61.0673 70.7663 61.651C71.1261 61.9399 71.4006 62.1825 71.5909 62.3403C71.778 62.5048 71.8781 62.5918 71.8781 62.5918C71.8781 62.5918 71.7522 62.5493 71.5168 62.4687C71.2839 62.3836 70.9373 62.2668 70.5076 62.0995C69.6436 61.7705 68.4243 61.2755 66.9892 60.6312C65.5545 59.9888 63.9024 59.199 62.1628 58.3024C61.7258 58.0819 61.2868 57.8469 60.8423 57.6118C60.3963 57.3785 59.9477 57.1363 59.4986 56.8879C58.5956 56.3997 57.6905 55.8806 56.7841 55.3643C55.8843 54.837 54.9834 54.3118 54.1098 53.7739C54.012 53.7156 53.92 53.6555 53.8234 53.5961C55.5097 58.2169 60.519 70.4752 67.4669 74.4871C83.2376 83.5915 80.1982 75.3715 83.6526 69.3891C87.1062 63.4061 95.7449 61.9276 79.9748 52.8234C73.0263 48.8113 59.9051 50.6033 55.0607 51.4527C55.1596 51.5078 55.2578 51.5574 55.3566 51.6123Z" fill="#FF57A3"/>
<path d="M51.3162 55.3867C51.3445 56.4124 51.3489 57.4562 51.3561 58.499C51.3493 59.5418 51.3472 60.5846 51.3176 61.6115C51.3092 62.1244 51.2942 62.634 51.2727 63.1375C51.2545 63.6403 51.2376 64.1374 51.2108 64.6262C51.1158 66.5813 50.976 68.4061 50.8146 69.9707C50.6539 71.5348 50.4734 72.8386 50.3264 73.7515C50.2565 74.2068 50.183 74.5656 50.1418 74.8108C50.0926 75.0549 50.0671 75.1856 50.0671 75.1856C50.0671 75.1856 50.0419 75.0549 49.9925 74.8108C49.9511 74.5661 49.8783 74.2075 49.8082 73.7515C49.6614 72.8386 49.4804 71.5348 49.3197 69.9707C49.159 68.4065 49.0186 66.5813 48.924 64.6267C48.8969 64.1378 48.8798 63.6403 48.8619 63.1375C48.8403 62.634 48.8251 62.1244 48.8169 61.6115C48.7873 60.5846 48.7856 59.542 48.7785 58.4992C48.7856 57.4562 48.7903 56.4128 48.8182 55.3867C48.8209 55.2739 48.8251 55.1639 48.8294 55.0509C45.6712 58.8212 37.5594 69.2884 37.5594 77.312C37.5596 95.5214 43.1591 88.7798 50.0666 88.7801C56.9746 88.7796 62.5741 95.5212 62.5741 77.312C62.5741 69.2884 54.4625 58.821 51.3043 55.0509C51.3092 55.1639 51.3136 55.2737 51.3162 55.3867Z" fill="#FF57A3"/>
<path d="M46.0262 53.7744C45.1526 54.312 44.2515 54.8374 43.3519 55.3647C42.4451 55.8808 41.5402 56.4001 40.6372 56.8886C40.1881 57.1367 39.7395 57.3785 39.2935 57.6127C38.8492 57.8469 38.4098 58.0823 37.9735 58.303C36.2332 59.1994 34.5814 59.9899 33.1464 60.6316C31.7113 61.2759 30.4922 61.7714 29.6282 62.1002C29.1985 62.2674 28.8513 62.384 28.6188 62.4691C28.3831 62.5502 28.2575 62.5922 28.2575 62.5922C28.2575 62.5922 28.3578 62.5052 28.5445 62.3411C28.735 62.1829 29.0095 61.9409 29.3693 61.6514C30.0861 61.0675 31.125 60.26 32.3995 59.339C33.6735 58.4173 35.1836 57.3821 36.83 56.3241C37.2396 56.0557 37.662 55.7928 38.0886 55.5252C38.5143 55.2562 38.9472 54.9882 39.3871 54.7236C40.2622 54.1847 41.1637 53.6618 42.0639 53.1349C42.9707 52.6192 43.875 52.101 44.7792 51.6128C44.8781 51.5581 44.9765 51.5087 45.0753 51.4535C40.2311 50.6044 27.11 48.8124 20.161 52.8245C4.39067 61.9295 13.0294 63.4075 16.4832 69.3901C19.9376 75.373 16.8988 83.5925 32.6687 74.4883C39.6173 70.4762 44.6263 58.2177 46.3124 53.597C46.2165 53.6561 46.1238 53.7163 46.0262 53.7744Z" fill="#FF57A3"/>
<path d="M44.7792 48.3877C43.875 47.8995 42.9707 47.3814 42.0639 46.8655C41.1637 46.3384 40.2622 45.8156 39.3871 45.2769C38.9472 45.0123 38.5141 44.7445 38.0886 44.4752C37.662 44.2075 37.2396 43.9448 36.8302 43.6766C35.1834 42.618 33.6733 41.5834 32.3995 40.6614C31.1253 39.7403 30.0861 38.9325 29.3693 38.3488C29.0095 38.0595 28.735 37.8175 28.5445 37.6596C28.3576 37.4951 28.2575 37.4081 28.2575 37.4081C28.2575 37.4081 28.3831 37.4503 28.6188 37.5312C28.8515 37.6165 29.1983 37.7328 29.628 37.9001C30.4922 38.2289 31.7113 38.7245 33.1464 39.3686C34.5811 40.011 36.2332 40.8004 37.973 41.6974C38.4098 41.9179 38.849 42.1532 39.2935 42.3876C39.7395 42.6215 40.1881 42.8633 40.6372 43.1117C41.5402 43.6001 42.4453 44.1192 43.3519 44.6355C44.2515 45.1628 45.1526 45.688 46.0262 46.2257C46.1238 46.2842 46.2159 46.3444 46.3124 46.4035C44.6263 41.783 39.617 29.5245 32.6687 25.5123C16.8986 16.4079 19.9376 24.6279 16.4834 30.6107C13.0299 36.5935 4.39109 38.0718 20.1612 47.1762C27.1098 51.1885 40.2309 49.3965 45.0755 48.5476C44.9765 48.4924 44.8781 48.4424 44.7792 48.3877Z" fill="#FF57A3"/>
<path d="M48.8194 44.6131C48.7913 43.587 48.7871 42.544 48.7797 41.5008C48.7867 40.4578 48.7886 39.4155 48.818 38.3885C48.8264 37.8754 48.8418 37.366 48.8631 36.8626C48.8811 36.3598 48.898 35.8627 48.925 35.3738C49.0198 33.4187 49.1601 31.594 49.321 30.0296C49.4819 28.4654 49.6624 27.1614 49.8092 26.2487C49.8793 25.793 49.9524 25.4344 49.9938 25.1894C50.0428 24.9451 50.0683 24.8146 50.0683 24.8146C50.0683 24.8146 50.0935 24.9451 50.1431 25.1894C50.1843 25.4342 50.2575 25.7928 50.3276 26.2487C50.474 27.1614 50.6552 28.4654 50.8159 30.0296C50.9768 31.5938 51.117 33.4187 51.2118 35.3738C51.2389 35.8622 51.2558 36.3598 51.2737 36.8626C51.2953 37.366 51.3105 37.8754 51.3189 38.3885C51.3485 39.4155 51.35 40.4578 51.3573 41.5008C51.3502 42.544 51.3453 43.587 51.3176 44.6131C51.3149 44.7263 51.3105 44.8364 51.3067 44.9491C54.4646 41.1788 62.5762 30.7117 62.5762 22.6881C62.5762 4.47863 56.9765 11.2202 50.0687 11.2202C43.161 11.2202 37.5615 4.47863 37.5615 22.6881C37.5615 30.7117 45.6733 41.179 48.8313 44.9491C48.8266 44.8364 48.8224 44.7263 48.8194 44.6131Z" fill="#FF57A3"/>
</svg>
